#!OML:ASF I:\Random Stuff\random\construction\7_22_03\Session 2\subj1.ASF
:FULLY-SPECIFIED
:DEGREES
1491
root -8.65586 17.6185 -5.98745 -143.07 64.7928 -161
lowerback 15.6558 1.00559 -7.46756
upperback 6.59115 0.965323 -8.82269
thorax -1.63257 0.876377 -5.34245
lowerneck -20.0286 -3.93709 0.447339
upperneck 44.4471 -6.06316 6.11101
head 21.8698 -0.648843 2.02402
rclavicle 5.40694e-014 1.27222e-013
rhumerus -2.61719 62.2889 -52.3721
rradius 75.8794
rwrist -56.2347
rhand -19.031 -14.5337
rfingers 7.12502
rthumb 7.27522 -44.3887
lclavicle 5.40694e-014 1.27222e-013
lhumerus 33.3877 -73.2491 65.1002
lradius 35.3288
lwrist -0.0759367
lhand -19.0057 59.8681
lfingers 7.12502
lthumb 7.29967 -630.278
rfemur -10.0526 -9.20727 22.2302
rtibia 3.02153e-014
rfoot -4.74989 -15.3786
rtoes -11.6644
lfemur -41.0373 -10.7123 -4.07628
ltibia 34.4223
lfoot -13.6685 -4.3786
ltoes -29.1927
1492
root -8.65141 17.6204 -5.98886 -143.079 64.7096 -161.059
lowerback 15.606 1.00377 -7.45827
upperback 6.59805 0.972421 -8.82392
thorax -1.59831 0.879801 -5.34797
lowerneck -20.0042 -3.96186 0.520653
upperneck 44.4751 -6.11745 6.09064
head 21.8819 -0.65694 1.98924
rclavicle 1.59028e-014 9.54166e-014
rhumerus -2.52187 62.5758 -52.2208
rradius 75.958
rwrist -55.936
rhand -19.3941 -14.3111
rfingers 7.12502
rthumb 6.9247 -44.1779
lclavicle 1.59028e-014 9.54166e-014
lhumerus 33.1989 -73.176 65.4117
lradius 35.368
lwrist 0.303904
lhand -18.5835 60.2703
lfingers 7.12502
lthumb 7.70713 -810.11
rfemur -10.049 -9.28633 22.2662
rtibia -4.13472e-014
rfoot -4.866 -15.3606
rtoes -10.9563
lfemur -41.096 -10.6725 -4.08799
ltibia 34.4085
lfoot -13.6879 -4.43019
ltoes -29.8621
1493
root -8.6455 17.6218 -5.98923 -142.987 64.5995 -160.995
lowerback 15.5526 1.00435 -7.43935
upperback 6.61656 0.983811 -8.78508
thorax -1.55069 0.883351 -5.31523
lowerneck -20.0036 -3.99664 0.576594
upperneck 44.481 -6.16928 6.0233
head 21.8806 -0.675794 1.93044
rclavicle -4.45278e-014 -9.54166e-014
rhumerus -2.3724 62.8952 -52.0074
rradius 76.0106
rwrist -55.5093
rhand -19.9557 -14.1717
rfingers 7.12502
rthumb 6.38259 -44.0556
lclavicle -4.45278e-014 -9.54166e-014
lhumerus 33.0603 -73.1006 65.6978
lradius 35.3075
lwrist 0.343164
lhand -18.2884 60.3724
lfingers 7.12502
lthumb 7.99198 -810.201
rfemur -10.0294 -9.35345 22.3665
rtibia -1.74931e-014
rfoot -4.99338 -15.3407
rtoes -10.2588
lfemur -41.1437 -10.6305 -4.01701
ltibia 34.415
lfoot -13.7298 -4.54581
ltoes -29.997
1494
root -8.63933 17.6201 -5.98969 -142.966 64.5139 -160.984
lowerback 15.5341 1.01228 -7.43581
upperback 6.63411 1.00075 -8.77346
thorax -1.52151 0.891563 -5.30618
lowerneck -20.0084 -4.02392 0.624996
upperneck 44.4596 -6.2277 5.99732
head 21.8646 -0.693587 1.89204
rclavicle -5.725e-014 6.36111e-015
rhumerus -2.38032 63.1959 -51.9724
rradius 75.979
rwrist -54.8118
rhand -20.5102 -14.1082
rfingers 7.12502
rthumb 5.84725 -44.0075
lclavicle -5.725e-014 6.36111e-015
lhumerus 33.6203 -73.2796 65.1659
lradius 35.2355
lwrist 0.192894
lhand -18.4164 60.2393
lfingers 7.12502
lthumb 7.86842 -810.073
rfemur -10.0161 -9.41806 22.4245
rtibia 7.95139e-015
rfoot -5.02586 -15.3364
rtoes -10.1966
lfemur -41.1732 -10.6854 -3.9461
ltibia 34.4429
lfoot -13.6906 -4.55905
ltoes -29.6204
1495
root -8.63332 17.6167 -5.98844 -143.006 64.4227 -161.015
lowerback 15.5255 1.0137 -7.4611
upperback 6.65978 1.00679 -8.76663
thorax -1.48913 0.894769 -5.28456
lowerneck -20.0185 -4.04628 0.575979
upperneck 44.4362 -6.30264 6.12548
head 21.8703 -0.712577 1.95149
rclavicle -1.59028e-014 -3.81667e-014
rhumerus -2.40019 63.5143 -51.9106
rradius 75.9402
rwrist -54.1668
rhand -20.9042 -14.0014
rfingers 7.12502
rthumb 5.46689 -43.9109
lclavicle -1.59028e-014 -3.81667e-014
lhumerus 34.4299 -73.5423 64.3156
lradius 35.16
lwrist -0.00900713
lhand -18.8496 60.0407
lfingers 7.12502
lthumb 7.45036 -630.11
rfemur -9.92842 -9.5016 22.4501
rtibia -3.02153e-014
rfoot -5.1814 -15.2049
rtoes -9.66882
lfemur -41.2061 -10.7198 -3.90776
ltibia 34.4975
lfoot -13.6849 -4.59861
ltoes -29.5195
1496
root -8.6273 17.6157 -5.98621 -142.981 64.3359 -160.972
lowerback 15.507 1.0147 -7.5022
upperback 6.68338 1.00899 -8.73511
thorax -1.45468 0.894198 -5.22596
lowerneck -20.0095 -4.02287 0.494593
upperneck 44.4162 -6.30078 6.29439
head 21.8729 -0.702662 2.05767
rclavicle -9.54166e-015 9.54166e-014
rhumerus -2.22208 63.914 -51.6045
rradius 76.0027
rwrist -53.7402
rhand -21.2493 -13.8385
rfingers 7.12502
rthumb 5.13361 -43.7563
lclavicle -9.54166e-015 9.54166e-014
lhumerus 34.653 -73.6269 64.1084
lradius 35.0958
lwrist -0.148528
lhand -19.0592 59.9486
lfingers 7.12502
lthumb 7.24803 -630.195
rfemur -9.8245 -9.56148 22.4997
rtibia 3.33958e-014
rfoot -5.41854 -15.0431
rtoes -8.6321
lfemur -41.2436 -10.6956 -3.85403
ltibia 34.5782
lfoot -13.7444 -4.72864
ltoes -29.5773
1497
root -8.62392 17.6154 -5.98387 -142.824 64.2423 -160.867
lowerback 15.4706 1.01568 -7.5023
upperback 6.67523 1.00958 -8.68642
thorax -1.44571 0.891151 -5.17131
lowerneck -20.2682 -4.1303 0.275307
upperneck 44.373 -6.44626 6.40965
head 22.3463 -0.771732 2.12127
rclavicle 4.13472e-014 -4.45278e-014
rhumerus -2.03458 64.2626 -51.3059
rradius 76.0807
rwrist -53.1534
rhand -21.5527 -13.4631
rfingers 7.12502
rthumb 4.84071 -43.3878
lclavicle 4.13472e-014 -4.45278e-014
lhumerus 34.4251 -73.6037 64.4295
lradius 35.0418
lwrist -0.264097
lhand -19.0036 59.9744
lfingers 7.12502
lthumb 7.30171 -630.172
rfemur -9.87567 -9.60232 22.6181
rtibia -1.27222e-014
rfoot -5.46864 -15.0201
rtoes -8.17854
lfemur -41.363 -10.6118 -3.76152
ltibia 34.6627
lfoot -13.7892 -4.89069
ltoes -29.279
1498
root -8.62165 17.6118 -5.98308 -142.629 64.1025 -160.73
lowerback 15.4621 0.987691 -7.41376
upperback 6.6579 0.977785 -8.64296
thorax -1.46259 0.873402 -5.16807
lowerneck -19.9444 -4.0108 0.396374
upperneck 44.4317 -6.26246 6.38528
head 21.8748 -0.692548 2.13569
rclavicle -6.36111e-014 4.77083e-014
rhumerus -1.96343 64.5017 -51.2121
rradius 76.1136
rwrist -51.7619
rhand -21.709 -13.06
rfingers 7.12502
rthumb 4.68974 -42.9881
lclavicle -6.36111e-014 4.77083e-014
lhumerus 34.1611 -73.5646 64.7383
lradius 34.9954
lwrist -0.448244
lhand -18.9398 59.9607
lfingers 7.12502
lthumb 7.36325 -630.187
rfemur -9.95512 -9.6696 22.7834
rtibia -1.59028e-015
rfoot -5.41594 -15.0338
rtoes -8.31737
lfemur -41.5171 -10.5608 -3.62718
ltibia 34.7368
lfoot -13.8076 -4.97232
ltoes -29.1153
1499
root -8.61861 17.6083 -5.98309 -142.615 63.9761 -160.681
lowerback 15.5527 0.942069 -7.35271
upperback 6.66337 0.915139 -8.62514
thorax -1.5079 0.843566 -5.17577
lowerneck -19.9217 -3.93631 0.411594
upperneck 44.4044 -6.13083 6.35049
head 21.832 -0.647426 2.14264
rclavicle 1.90833e-014 -5.725e-014
rhumerus -1.83477 64.7341 -51.1309
rradius 76.1232
rwrist -49.6448
rhand -21.6393 -12.8589
rfingers 7.12502
rthumb 4.75711 -42.7855
lclavicle 1.90833e-014 -5.725e-014
lhumerus 33.8766 -73.4993 64.9838
lradius 34.9806
lwrist -0.607712
lhand -18.8892 59.9022
lfingers 7.12502
lthumb 7.41207 -630.248
rfemur -9.90394 -9.75675 22.879
rtibia 1.59028e-015
rfoot -5.42628 -15.038
rtoes -8.56589
lfemur -41.5538 -10.4936 -3.60506
ltibia 34.8038
lfoot -13.864 -5.08322
ltoes -29.6103
1500
root -8.61453 17.6088 -5.98139 -142.581 63.9546 -160.655
lowerback 15.5488 0.934901 -7.36867
upperback 6.67345 0.906623 -8.62731
thorax -1.49519 0.839459 -5.16735
lowerneck -19.9534 -3.90778 0.45244
upperneck 44.4278 -6.05506 6.24384
head 21.8424 -0.626235 2.0965
rclavicle 3.18055e-015 1.27222e-014
rhumerus -1.62434 64.9676 -50.9302
rradius 76.2026
rwrist -47.9071
rhand -21.843 -12.7362
rfingers 7.12502
rthumb 4.56039 -42.6671
lclavicle 3.18055e-015 1.27222e-014
lhumerus 33.8503 -73.4973 64.9771
lradius 35.037
lwrist -0.601026
lhand -18.9321 59.9663
lfingers 7.12502
lthumb 7.37066 -630.182
rfemur -9.88225 -9.76382 22.9107
rtibia 2.54444e-014
rfoot -5.53392 -15.0163
rtoes -8.16797
lfemur -41.5783 -10.2359 -3.69398
ltibia 34.8639
lfoot -13.9512 -5.34069
ltoes -30.0677
1501
root -8.61151 17.6082 -5.97966 -142.457 63.952 -160.592
lowerback 15.4845 0.943395 -7.36551
upperback 6.67432 0.925308 -8.62359
thorax -1.45946 0.847497 -5.16561
lowerneck -19.9983 -3.90592 0.478547
upperneck 44.4474 -6.03405 6.172
head 21.8625 -0.623031 2.05891
rclavicle -6.36111e-014 2.8625e-014
rhumerus -1.45712 65.187 -50.7239
rradius 76.3489
rwrist -46.6576
rhand -22.3342 -12.6841
rfingers 7.12502
rthumb 4.08608 -42.6247
lclavicle -6.36111e-014 2.8625e-014
lhumerus 34.1897 -73.5894 64.6238
lradius 35.1525
lwrist -0.472323
lhand -18.9881 60.1445
lfingers 7.12502
lthumb 7.31664 -630.002
rfemur -9.9447 -9.74321 22.9574
rtibia -1.59028e-014
rfoot -5.55741 -15.0091
rtoes -7.82905
lfemur -41.6571 -10.0382 -3.71697
ltibia 34.8987
lfoot -13.9847 -5.50239
ltoes -30.2763
1502
root -8.60933 17.6063 -5.98043 -142.34 63.9398 -160.493
lowerback 15.4885 0.94939 -7.3439
upperback 6.66026 0.931239 -8.61221
thorax -1.47696 0.849658 -5.16677
lowerneck -19.9847 -3.91736 0.472306
upperneck 44.4727 -6.04216 6.1674
head 21.8781 -0.626749 2.05762
rclavicle 5.08889e-014 2.8625e-014
rhumerus -1.3839 65.4023 -50.63
rradius 76.4487
rwrist -45.1954
rhand -22.3171 -12.6097
rfingers 7.12502
rthumb 4.10255 -42.55
lclavicle 5.08889e-014 2.8625e-014
lhumerus 34.4546 -73.6708 64.3353
lradius 35.2027
lwrist -0.407124
lhand -18.9681 60.2052
lfingers 7.12502
lthumb 7.33596 -450.058
rfemur -9.97125 -9.72427 23.0092
rtibia 4.29375e-014
rfoot -5.54478 -15.0088
rtoes -7.75918
lfemur -41.6963 -10.0659 -3.63824
ltibia 34.9232
lfoot -13.938 -5.45674
ltoes -30.1164
1503
root -8.60793 17.6076 -5.98218 -142.314 63.9484 -160.47
lowerback 15.505 0.948316 -7.36746
upperback 6.64613 0.921643 -8.60999
thorax -1.50142 0.844408 -5.15045
lowerneck -20.2566 -3.93919 0.335091
upperneck 44.4125 -6.06218 6.23219
head 22.32 -0.642235 2.10827
rclavicle -9.54166e-015 -1.90833e-014
rhumerus -1.29721 65.613 -50.5252
rradius 76.5284
rwrist -43.5376
rhand -22.0868 -12.4106
rfingers 7.12502
rthumb 4.32498 -42.3464
lclavicle -9.54166e-015 -1.90833e-014
lhumerus 34.4465 -73.6833 64.3118
lradius 35.1801
lwrist -0.420935
lhand -19.0134 60.1225
lfingers 7.12502
lthumb 7.29221 -630.023
rfemur -9.97501 -9.70835 23.0261
rtibia -2.06736e-014
rfoot -5.50508 -15.0387
rtoes -8.22177
lfemur -41.7155 -10.1577 -3.58656
ltibia 34.9676
lfoot -13.9116 -5.37314
ltoes -29.7829
1504
root -8.60731 17.6078 -5.98406 -142.383 63.9874 -160.516
lowerback 15.5377 0.943651 -7.44855
upperback 6.65291 0.90311 -8.60902
thorax -1.51202 0.834964 -5.10186
lowerneck -20.2546 -3.91249 0.377099
upperneck 44.4453 -6.00077 6.1608
head 22.3323 -0.620777 2.07818
rclavicle 4.45278e-014 7.31528e-014
rhumerus -1.00884 65.8396 -50.2306
rradius 76.5713
rwrist -41.6431
rhand -21.7997 -12.017
rfingers 7.12502
rthumb 4.6022 -41.947
lclavicle 4.45278e-014 7.31528e-014
lhumerus 34.4315 -73.6605 64.2985
lradius 35.1655
lwrist -0.404467
lhand -19.1331 60.077
lfingers 7.12502
lthumb 7.17671 -630.065
rfemur -9.96327 -9.68837 22.9982
rtibia -1.90833e-014
rfoot -5.32976 -15.1152
rtoes -9.7142
lfemur -41.6988 -10.217 -3.61592
ltibia 35.0226
lfoot -13.9501 -5.29515
ltoes -29.7283
1505
root -8.60716 17.6039 -5.98505 -142.351 64.0367 -160.51
lowerback 15.5092 0.936392 -7.53104
upperback 6.64752 0.883863 -8.59207
thorax -1.50378 0.822927 -5.03269
lowerneck -19.9581 -3.86478 0.555229
upperneck 44.5574 -5.88637 5.95586
head 21.8999 -0.581868 1.96975
rclavicle 1.27222e-014 -1.27222e-014
rhumerus -0.521765 66.5568 -49.6952
rradius 76.5081
rwrist -38.2898
rhand -22.3588 -11.1393
rfingers 7.12502
rthumb 4.06232 -41.0803
lclavicle 1.27222e-014 -1.27222e-014
lhumerus 34.5446 -73.639 64.1675
lradius 35.1744
lwrist -0.32264
lhand -19.1605 60.1384
lfingers 7.12502
lthumb 7.15019 -630.002
rfemur -10.0276 -9.64715 22.98
rtibia -7.95139e-015
rfoot -5.14268 -15.1605
rtoes -11.0109
lfemur -41.7378 -10.1432 -3.6557
ltibia 35.0702
lfoot -13.9666 -5.33348
ltoes -29.4971
